<svg xmlns="http://www.w3.org/2000/svg" viewBox="0 0 64 64">
  <rect width="64" height="64" rx="12" fill="#FAF4E8"/>
  <g transform="translate(7 6) scale(1.06)">
    <line x1="18.2" y1="29.5" x2="8" y2="44" stroke="#141210" stroke-width="4.4" stroke-linecap="round"/>
    <circle cx="27" cy="17.5" r="14.2" fill="#2B48F0" stroke="#141210" stroke-width="3"/>
    <g transform="translate(15.4 6.2) scale(0.485)">
      <path d="M9 19 C9 9 15 7 19 9 C21 10 23 11 24 11 C25 11 27 10 29 9 C33 7 39 9 39 19 C39 25 37 28 35 30 C34.5 36 32.5 41 30 41 C27.5 41 27 35 26.5 32 C26.2 30 25.3 29 24 29 C22.7 29 21.8 30 21.5 32 C21 35 20.5 41 18 41 C15.5 41 13.5 36 13 30 C11 28 9 25 9 19 Z"
        fill="#FFB511" stroke="#141210" stroke-width="4" stroke-linejoin="round"/>
    </g>
    <circle cx="19.5" cy="9.8" r="2" fill="#FAF4E8" opacity="0.9"/>
  </g>
</svg>
